# AST/ASF file generated using VICON BodyLanguage
# -----------------------------------------------
:version 1.10
:name VICON
:units
  mass 1.0
  length 0.45
  angle deg
:documentation
   .ast/.asf automatically generated from VICON data using
   VICON BodyBuilder and BodyLanguage model FoxedUp or BRILLIANT.MOD
:root
   order TX TY TZ RX RY RZ
   axis XYZ
   position 0 0 0  
   orientation 0 0 0 
:bonedata
  begin
     id 1 
     name lhipjoint
     direction 0.596438 -0.722117 0.35044 
     length 2.43043 
     axis 0 0 0  XYZ
  end
  begin
     id 2 
     name lfemur
     direction 0.34202 -0.939693 0  
     length 7.0339  
     axis 0 0 20  XYZ
    dof rx ry rz
    limits (-160.0 20.0)
           (-70.0 70.0)
           (-60.0 70.0)
  end
  begin
     id 3 
     name ltibia
     direction 0.34202 -0.939693 0   
     length 7.56602   
     axis 0 0 20   XYZ
    dof rx
    limits (-10.0 170.0)
  end
  begin
     id 4 
     name lfoot
     direction 0.0985677 -0.270812 0.957572   
     length 1.85172   
     axis -90 7.62852e-016 20   XYZ
    dof rx rz
    limits (-45.0 90.0)
           (-70.0 20.0)
  end
  begin
     id 5 
     name ltoes
     direction 1.53534e-011 -4.21843e-011 1   
     length 0.929904   
     axis -90 7.62852e-016 20   XYZ
    dof rx
    limits (-90.0 20.0)
  end
  begin
     id 6 
     name rhipjoint
     direction -0.585088 -0.729594 0.354068   
     length 2.40552  
     axis 0 0 0  XYZ 
  end
  begin
     id 7 
     name rfemur
     direction -0.34202 -0.939693 0   
     length 7.12573   
     axis 0 0 -20   XYZ
    dof rx ry rz
    limits (-160.0 20.0)
           (-70.0 70.0)
           (-70.0 60.0)
  end
  begin
     id 8 
     name rtibia
     direction -0.34202 -0.939693 0   
     length 7.35777   
     axis 0 0 -20   XYZ
    dof rx
    limits (-10.0 170.0)
 end
 begin
     id 9 
     name rfoot
     direction -0.120907 -0.33219 0.935431   
     length 2.0994  
     axis -90 -7.62852e-016 -20   XYZ
    dof rx rz
    limits (-45.0 90.0)
           (-20.0 70.0)
  end
  begin
     id 10 
     name rtoes
     direction -1.53577e-011 -4.21787e-011 1   
     length 1.04244   
     axis -90 -7.62852e-016 -20   XYZ
    dof rx
    limits (-90.0 20.0)
  end
  begin
     id 11 
     name lowerback
     direction 0.00268363 0.993603 -0.112896   
     length 2.15839   
     axis 0 0 0   XYZ
    dof rx ry rz
    limits (-20.0 45.0)
           (-30.0 30.0)
           (-30.0 30.0)
  end
  begin
     id 12 
     name upperback
     direction 0.0272563 0.999411 -0.0208618   
     length 2.16443   
     axis 0 0 0   XYZ
    dof rx ry rz
    limits (-20.0 45.0)
           (-30.0 30.0)
           (-30.0 30.0)
  end
  begin
     id 13 
     name thorax
     direction 0.0254655 0.999174 0.0316806   
     length 2.19003   
     axis 0 0 0   XYZ
    dof rx ry rz
    limits (-20.0 45.0)
           (-30.0 30.0)
           (-30.0 30.0)
  end
  begin
     id 14 
     name lowerneck
     direction -0.0102178 0.988048 0.15381   
     length 1.61507   
     axis 0 0 0   XYZ
    dof rx ry rz
    limits (-20.0 45.0)
           (-30.0 30.0)
           (-30.0 30.0)
  end
  begin
     id 15 
     name upperneck
     direction -0.0061965 0.994088 -0.108398   
     length 1.64042   
     axis 0 0 0   XYZ
    dof rx ry rz
    limits (-20.0 45.0)
           (-30.0 30.0)
           (-30.0 30.0)
  end
  begin
     id 16
     name head
     direction -0.00151929 0.998591 -0.0530385  
     length 1.64343  
     axis 0 0 0   XYZ
    dof rx ry rz
    limits (-20.0 45.0)
           (-30.0 30.0)
           (-30.0 30.0)
  end
  begin
     id 17 
     name lclavicle
     direction 0.948974 0.284245 -0.136574  
     length 3.3483  
     axis 0 0 0   XYZ
    dof ry rz
    limits (-20.0 10.0)
           (0.0 20.0)
  end
  begin
     id 18 
     name lhumerus
     direction 1 -4.48961e-011 1.68576e-027   
     length 4.93485   
     axis -180 -30 -90   XYZ
    dof rx ry rz
    limits (-60.0 90.0)
           (-90.0 90.0)
           (-90.0 90.0)
  end
  begin
     id 19
     name lradius
     direction 1 -4.48965e-011 -2.46405e-027   
     length 3.41719   
     axis -180 -30 -90   XYZ
    dof rx
    limits (-10.0 170.0)
  end
  begin
     id 20
     name lwrist
     direction 1 -4.48968e-011 -8.00486e-028   
     length 1.7086   
     axis 3.27501e-015 90 90   XYZ
    dof ry
    limits (-180.0 0.0)
 end
  begin
     id 21 
     name lhand
     direction 1 -4.48977e-011 -1.60161e-027   
     length 0.6241   
     axis 1.02148e-015 90 90   XYZ
    dof rx rz
    limits (-90.0 90.0)
           (-45.0 45.0)
  end
  begin
     id 22 
     name lfingers
     direction 1 -4.49049e-011 -3.21275e-027   
     length 0.503166   
     axis 2.04295e-015 90 90   XYZ
    dof rx
    limits (0.0 90.0)
  end
  begin
     id 23
     name lthumb
     direction 0.707107 -6.34975e-011 0.707107   
     length 0.722448   
     axis -90 45 -1.62303e-014   XYZ
    dof rx rz
    limits (-45.0 45.0)
           (-45.0 45.0)
  end
  begin
     id 24 
     name rclavicle
     direction -0.904485 0.355099 -0.236246   
     length 3.18329  
     axis 0 0 0   XYZ 
    dof ry rz
    limits (-10.0 20.0)
           (-20.0 0.0)
  end
  begin
     id 25 
     name rhumerus
     direction -1 -4.48953e-011 1.32816e-027  
     length 5.22034   
     axis -180 30 90   XYZ
    dof rx ry rz
    limits (-90.0 60.0)
           (-90.0 90.0)
           (-90.0 90.0)
  end
  begin
     id 26 
     name rradius
     direction -1 -4.48965e-011 -3.93727e-027   
     length 3.41809   
     axis -180 30 90   XYZ
    dof rx
    limits (-10.0 170.0)
  end
  begin
     id 27 
     name rwrist
     direction -1 -4.48962e-011 -8.003e-028   
     length 1.70904   
     axis 3.27501e-015 -90 -90   XYZ
    dof ry
    limits (-180.0 0.0)
  end
  begin
     id 28
     name rhand
     direction -1 -4.49008e-011 -1.60365e-027   
     length 0.77534   
     axis 1.02148e-015 -90 -90   XYZ
    dof rx rz
    limits (-90.0 90.0)
           (-45.0 45.0)
  end
  begin
     id 29
     name rfingers
     direction -1 -4.49001e-011 -3.2064e-027   
     length 0.625099   
     axis 2.04295e-015 -90 -90   XYZ
    dof rx
    limits (0.0 90.0)
  end
  begin
     id 30
     name rthumb
     direction -0.707107 -6.34989e-011 0.707107   
     length 0.897521   
     axis -90 -45 1.62303e-014   XYZ
    dof rx rz
    limits (-45.0 45.0)
           (-45.0 45.0)
  end
:hierarchy
  begin
    root lhipjoint rhipjoint lowerback
    lhipjoint lfemur
    lfemur ltibia
    ltibia lfoot
    lfoot ltoes
    rhipjoint rfemur
    rfemur rtibia
    rtibia rfoot
    rfoot rtoes
    lowerback upperback
    upperback thorax
    thorax lowerneck lclavicle rclavicle
    lowerneck upperneck
    upperneck head
    lclavicle lhumerus
    lhumerus lradius
    lradius lwrist
    lwrist lhand lthumb
    lhand lfingers
    rclavicle rhumerus
    rhumerus rradius
    rradius rwrist
    rwrist rhand rthumb
    rhand rfingers
  end

#!OML:ASF \\sashay\E\Suitcase\Project 1\Capture day 1\Session 1\Male1.ASF
:FULLY-SPECIFIED
:DEGREES
648
root 0.990103 17.0913 12.1946 7.89127 -3.17512 -5.80081
lowerback 3.14207 1.43441 3.18406
upperback -1.36265 2.13585 2.69124
thorax -3.15331 1.02727 0.863017
lowerneck -27.099 -1.04168 10.0328
upperneck 29.562 0.898546 -19.9295
head 15.0311 -1.35721 -10.3009
rclavicle -7.72775e-015 1.05356e-014
rhumerus -45.6176 -37.6744 -53.8932
rradius 10.6634
rwrist 11.1963
rhand -12.0325 16.3398
rfingers 7.12502
rthumb 14.0257 -13.167
lclavicle -7.72775e-015 1.05356e-014
lhumerus -37.3066 6.49278 82.0731
lradius 31.0323
lwrist -9.1456
lhand -2.81194 40.6453
lfingers 7.12502
lthumb 22.8944 69.3062
rfemur 13.4327 8.33963 32.586
rtibia 0
rfoot -9.31869 -8.29846
rtoes 15.9729
lfemur -37.7888 -3.42368 -12.1249
ltibia 24.2575
lfoot -13.7556 1.66051
ltoes -3.63553
649
root 1.00414 17.0754 12.3349 7.75566 -3.38125 -5.59842
lowerback 3.04572 1.53437 3.02844
upperback -1.3244 2.25213 2.56391
thorax -3.05894 1.0883 0.815329
lowerneck -26.8852 -1.06361 9.87788
upperneck 29.339 0.826108 -19.6343
head 14.8593 -1.36576 -10.0928
rclavicle 8.10048e-015 -1.61016e-014
rhumerus -45.3413 -38.0844 -54.017
rradius 10.74
rwrist 10.9778
rhand -12.0102 16.3211
rfingers 7.12502
rthumb 14.0472 -13.1842
lclavicle 8.10048e-015 -1.61016e-014
lhumerus -37.3479 6.31919 82.1631
lradius 30.8878
lwrist -9.15863
lhand -2.29626 40.6338
lfingers 7.12502
lthumb 23.3892 69.2326
rfemur 14.1519 8.19556 32.2649
rtibia -4.13472e-014
rfoot -9.3017 -7.93821
rtoes 14.9685
lfemur -37.4861 -3.35098 -12.5815
ltibia 24.6974
lfoot -13.8578 1.11209
ltoes -0.620499
650
root 1.01615 17.0498 12.4648 7.56963 -3.63614 -5.93112
lowerback 3.13278 1.61878 3.33411
upperback -1.29028 2.38171 2.59642
thorax -3.06148 1.14703 0.669259
lowerneck -26.566 -1.08326 9.64677
upperneck 29.1109 0.716474 -19.1002
head 14.6517 -1.36433 -9.75892
rclavicle -1.15295e-014 -1.68967e-014
rhumerus -44.7333 -37.4386 -55.156
rradius 11.0415
rwrist 9.62134
rhand -12.4299 17.3109
rfingers 7.12502
rthumb 13.6427 -12.222
lclavicle -1.15295e-014 -1.68967e-014
lhumerus -37.4655 6.47655 82.0625
lradius 30.8145
lwrist -9.47018
lhand -2.12462 40.5265
lfingers 7.12502
lthumb 23.5539 69.1042
rfemur 14.9053 8.14336 32.5431
rtibia -3.49861e-014
rfoot -9.47937 -7.69893
rtoes 15.5597
lfemur -37.0354 -3.25848 -12.3631
ltibia 25.0146
lfoot -14.2122 0.520449
ltoes -1.08225
651
root 0.997372 17.0284 12.6028 7.22935 -4.28096 -6.12237
lowerback 3.32208 1.87641 3.10039
upperback -1.19399 2.72076 2.58958
thorax -3.07495 1.32083 0.768613
lowerneck -26.2918 -1.17538 9.35986
upperneck 28.8977 0.469006 -18.4053
head 14.4336 -1.40826 -9.37302
rclavicle 3.51103e-014 4.01545e-014
rhumerus -44.4087 -37.8031 -55.448
rradius 11.1626
rwrist 9.74753
rhand -12.1438 16.2169
rfingers 7.12502
rthumb 13.9184 -13.2973
lclavicle 3.51103e-014 4.01545e-014
lhumerus -37.362 6.57287 81.9271
lradius 30.4508
lwrist -9.89531
lhand -2.07337 40.8451
lfingers 7.12502
lthumb 23.603 69.4165
rfemur 15.7603 8.3948 32.799
rtibia -4.77083e-014
rfoot -9.00494 -7.45476
rtoes 13.9851
lfemur -36.2602 -3.22105 -12.0303
ltibia 25.2853
lfoot -14.6303 0.17927
ltoes -1.92821
652
root 1.01514 17.0175 12.7346 7.21162 -4.48376 -5.87089
lowerback 3.31788 1.93828 2.89695
upperback -1.22755 2.79181 2.46968
thorax -3.10991 1.35854 0.753962
lowerneck -26.246 -1.15957 9.273
upperneck 28.7805 0.465573 -18.2368
head 14.3697 -1.39722 -9.26163
rclavicle 3.80176e-014 2.72335e-014
rhumerus -43.9496 -37.6045 -55.9981
rradius 11.188
rwrist 9.57646
rhand -12.8245 17.4277
rfingers 7.12502
rthumb 13.2624 -12.1304
lclavicle 3.80176e-014 2.72335e-014
lhumerus -37.4338 6.45795 81.9701
lradius 30.2392
lwrist -9.74766
lhand -1.81221 40.8278
lfingers 7.12502
lthumb 23.8535 69.3667
rfemur 16.325 8.27793 32.3877
rtibia -4.77083e-014
rfoot -8.89832 -7.1566
rtoes 14.4562
lfemur -35.8147 -3.82579 -12.2339
ltibia 25.4702
lfoot -15.0234 -0.146599
ltoes -2.39836
